# xmcd CD database file
#
# Track frame offsets:
#	150
#	28531
#	66897
#	77427
#	94956
#	118319
#	146403
#	154371
#	195192
#	221505
#	230720
#	243208
#
# Disc length: 3626 seconds
#
# Revision: 0
# Processed by: cddbd v1.5.1PL2 Copyright (c) Steve Scherf et al.
# Submitted via: CDex 1.51
#
DISCID=a00e280c
DTITLE=Heavy Tuba - Faces -LIVE-
DYEAR=1994
DGENRE=Jazz
TTITLE0=Voodoo Chile
TTITLE1=Monday Night
TTITLE2=148 Street Blues
TTITLE3=In - Phase - Out
TTITLE4=Spinning Wheel
TTITLE5=Meltdown
TTITLE6=Prelude
TTITLE7=Las Zorras Pocas
TTITLE8=Pork Fat an Black - Eyed Peas
TTITLE9=Hvezdonicka
TTITLE10=Fanny Mae
TTITLE11=Going Uptown
EXTD=YEAR: 1994
EXTT0=
EXTT1=
EXTT2=
EXTT3=
EXTT4=
EXTT5=
EXTT6=
EXTT7=
EXTT8=
EXTT9=
EXTT10=
EXTT11=
PLAYORDER=
